<?xml version="1.0" encoding="utf-8"?>
<!-- Generator: Adobe Illustrator 16.0.0, SVG Export Plug-In . SVG Version: 6.00 Build 0)  -->
<!DOCTYPE svg PUBLIC "-//W3C//DTD SVG 1.1//EN" "http://www.w3.org/Graphics/SVG/1.1/DTD/svg11.dtd">
<svg version="1.1" id="Capa_1" xmlns="http://www.w3.org/2000/svg" xmlns:xlink="http://www.w3.org/1999/xlink" x="0px" y="0px"
	 width="792px" height="612px" viewBox="0 0 792 612" enable-background="new 0 0 792 612" xml:space="preserve">
<g id="_x37_7_Essential_Icons_26_">
	<path id="Inbox" fill="#5C5C5C" d="M702,410.632L702,410.632L702,410.632L623.032,15.793C621.058,6.91,613.161,0,603.29,0H198.581
		c-8.884,0-17.768,5.923-19.742,15.793L90,410.632c0,0.987,0,2.962,0,3.949v177.677C90,603.116,98.884,612,109.742,612h572.516
		c10.858,0,19.742-8.884,19.742-19.742V414.581C702,413.594,702,411.619,702,410.632z M214.374,39.484H586.51l71.071,355.355
		H484.839c-10.858,0-19.742,8.884-19.742,19.742c0,27.639-41.458,60.213-69.097,60.213s-69.097-32.574-69.097-60.213
		c0-10.858-8.884-19.742-19.742-19.742H134.419L214.374,39.484z M662.516,572.516H129.484V434.322h159.91
		c8.884,39.484,64.161,78.968,106.606,78.968s97.723-39.483,106.606-78.968h159.909V572.516z"/>
</g>
</svg>
