<?xml version="1.0" encoding="utf-8"?>
<!-- Generator: Adobe Illustrator 16.0.0, SVG Export Plug-In . SVG Version: 6.00 Build 0)  -->
<!DOCTYPE svg PUBLIC "-//W3C//DTD SVG 1.1//EN" "http://www.w3.org/Graphics/SVG/1.1/DTD/svg11.dtd">
<svg version="1.1" id="Layer_1" xmlns="http://www.w3.org/2000/svg" xmlns:xlink="http://www.w3.org/1999/xlink" x="0px" y="0px"
	 width="612px" height="612px" viewBox="0 0 612 612" enable-background="new 0 0 612 612" xml:space="preserve">
<path fill-rule="evenodd" clip-rule="evenodd" fill="#7E8082" d="M229.348,341.067c6.339,0,11.482-1.924,15.286-5.716
	c3.795-3.815,5.742-9.003,5.777-15.427l0.004-0.474h-18.608v4.898h12.984c-0.602,3.411-2.261,6.247-4.93,8.418
	c-2.826,2.299-6.327,3.465-10.408,3.465c-3.372,0-6.521-0.789-9.358-2.33c-2.822-1.537-5.071-3.683-6.679-6.376
	c-1.598-2.697-2.41-5.57-2.41-8.547c0-2.959,0.76-5.685,2.331-8.334c1.553-2.627,3.767-4.727,6.581-6.249
	c5.034-2.757,10.748-3.153,16.73-0.618c2.672,1.15,5.147,2.842,7.351,5.022l0.323,0.323l3.873-3.666l-0.36-0.343
	c-2.959-2.807-6.019-4.87-9.107-6.129c-3.11-1.272-6.473-1.914-9.993-1.914c-4.356,0-8.312,0.973-11.761,2.891
	c-3.463,1.922-6.229,4.614-8.216,8.019c-1.982,3.399-2.987,7.126-2.987,11.078c0,5.312,1.757,10.053,5.216,14.094
	C215.476,338.407,221.652,341.067,229.348,341.067"/>
<path fill-rule="evenodd" clip-rule="evenodd" fill="#7E8082" d="M285.148,340.04l-14.756-19.05c3.06-0.1,5.519-0.552,7.32-1.353
	c2.023-0.896,3.609-2.249,4.716-4.01c1.097-1.775,1.654-3.844,1.654-6.141c0-2.773-0.803-5.154-2.398-7.068
	c-1.599-1.918-3.686-3.178-6.202-3.743c-1.674-0.384-4.824-0.577-9.346-0.577H257.5v41.941h5.035v-19.03h1.614l14.737,19.03H285.148
	z M262.535,316.056v-13h6.759c2.721,0,4.695,0.23,5.858,0.683c1.105,0.444,2.013,1.199,2.709,2.253
	c0.686,1.034,1.037,2.204,1.037,3.476c0,1.316-0.348,2.519-1.025,3.581c-0.679,1.05-1.635,1.825-2.847,2.309
	c-1.263,0.496-3.245,0.748-5.894,0.748L262.535,316.056z"/>
<path fill-rule="evenodd" clip-rule="evenodd" fill="#7E8082" d="M297.753,338.626c2.427,1.62,5.373,2.441,8.766,2.441
	c3.124,0,5.842-0.877,8.074-2.606c2.217-1.733,3.714-3.795,4.454-6.129c0.722-2.307,1.085-5.337,1.085-9.012v-25.222h-5.039v25.222
	c0,3.194-0.131,5.305-0.399,6.281c-0.37,1.386-0.961,2.577-1.747,3.537c-0.789,0.96-1.777,1.722-2.952,2.265
	c-2.56,1.188-5.422,1.075-8.155-0.229c-1.466-0.698-2.56-1.563-3.246-2.574c-0.699-1.027-1.147-2.324-1.34-3.869
	c-0.109-0.683-0.162-2.445-0.162-5.41v-25.222h-5.039v25.222c0,4.26,0.254,7.13,0.775,8.773
	C293.659,334.78,295.315,336.981,297.753,338.626"/>
<path fill-rule="evenodd" clip-rule="evenodd" fill="#7E8082" d="M353.525,316.55c1.509-1.843,2.272-4.215,2.272-7.058
	c0-2.814-0.783-5.188-2.334-7.054c-1.545-1.865-3.56-3.108-5.982-3.707c-1.692-0.419-4.923-0.633-9.593-0.633h-8.637v41.941h5.039
	v-19.065h2.464c5.086,0,8.624-0.23,10.528-0.683C349.921,319.646,352.022,318.391,353.525,316.55 M340.766,316.105l-6.475-0.081
	v-12.968h6.771c2.697,0,4.654,0.23,5.813,0.683c1.134,0.452,2.022,1.191,2.719,2.257c0.689,1.062,1.037,2.249,1.037,3.52
	c0,1.309-0.352,2.507-1.033,3.562c-0.696,1.055-1.656,1.824-2.854,2.293C345.494,315.857,343.482,316.105,340.766,316.105z"/>
<path fill-rule="evenodd" clip-rule="evenodd" fill="#7E8082" d="M383.382,341.067c6.108,0,11.361-2.154,15.609-6.409
	c4.238-4.252,6.39-9.5,6.39-15.598c0-6.154-2.155-11.409-6.405-15.636c-4.26-4.212-9.618-6.352-15.925-6.352
	c-3.892,0-7.567,0.981-10.917,2.919c-3.348,1.934-6.027,4.65-7.967,8.076c-1.941,3.434-2.923,7.198-2.923,11.183
	c0,6.011,2.161,11.203,6.421,15.431C371.912,338.921,377.2,341.067,383.382,341.067 M368.645,310.522
	c1.486-2.605,3.574-4.692,6.198-6.21c2.619-1.539,5.447-2.318,8.395-2.318c2.994-0.004,5.858,0.779,8.518,2.322
	c2.688,1.527,4.731,3.533,6.245,6.131c1.467,2.54,2.209,5.437,2.209,8.602c0,3.173-0.742,6.096-2.209,8.684
	c-1.487,2.601-3.561,4.673-6.16,6.158c-2.638,1.497-5.53,2.257-8.603,2.257c-4.688,0-8.575-1.604-11.891-4.904
	c-3.275-3.241-4.935-7.282-4.935-12.01C366.412,316.048,367.168,313.116,368.645,310.522z"/>
<polygon fill-rule="evenodd" clip-rule="evenodd" fill="#7E8082" points="40.479,366.366 61.591,366.366 61.591,451.806 
	71.269,451.806 71.269,366.366 92.376,366.366 92.376,357.079 40.479,357.079 "/>
<polygon fill-rule="evenodd" clip-rule="evenodd" fill="#7E8082" points="106.087,451.806 159.985,451.806 159.985,442.536 
	115.55,442.536 115.55,405.308 159.985,405.308 159.985,396.036 115.55,396.036 115.55,366.366 160.361,366.366 160.361,357.079 
	106.087,357.079 "/>
<polygon fill-rule="evenodd" clip-rule="evenodd" fill="#7E8082" points="241.888,429.686 178.844,357.079 176.79,357.079 
	176.79,451.806 186.56,451.806 186.56,380.09 249.079,451.806 251.214,451.806 251.214,357.079 241.888,357.079 "/>
<polygon fill-rule="evenodd" clip-rule="evenodd" fill="#7E8082" points="274.312,451.806 328.215,451.806 328.215,442.536 
	283.787,442.536 283.787,405.308 328.215,405.308 328.215,396.036 283.787,396.036 283.787,366.366 328.609,366.366 
	328.609,357.079 274.312,357.079 "/>
<path fill-rule="evenodd" clip-rule="evenodd" fill="#7E8082" d="M390.646,404.762c4.506-1.995,7.985-4.954,10.416-8.845
	c2.426-3.931,3.613-8.473,3.613-13.608c0-6.211-1.731-11.407-5.239-15.643c-3.546-4.236-8.1-7.009-13.728-8.282
	c-3.744-0.853-10.869-1.305-21.395-1.305h-18.855v94.727h9.456V407.84h5.362l34.042,43.966h11.732l-34.05-43.966
	C379.917,407.774,386.152,406.757,390.646,404.762 M354.914,398.557v-32.19h16.714c6.492,0,11.119,0.569,13.922,1.652
	c2.79,1.122,5.066,2.998,6.777,5.607c1.722,2.566,2.581,5.458,2.581,8.636c0,3.254-0.835,6.21-2.533,8.858
	c-1.729,2.623-4.089,4.559-7.119,5.761c-3.026,1.189-7.712,1.797-14.019,1.797L354.914,398.557z"/>
<rect x="423.626" y="357.079" fill-rule="evenodd" clip-rule="evenodd" fill="#7E8082" width="9.447" height="94.727"/>
<polygon fill-rule="evenodd" clip-rule="evenodd" fill="#7E8082" points="454.782,451.806 464.242,451.806 464.242,405.308 
	502.229,405.308 502.229,396.036 464.242,396.036 464.242,366.366 502.229,366.366 502.229,357.079 454.782,357.079 "/>
<polygon fill-rule="evenodd" clip-rule="evenodd" fill="#7E8082" points="573.054,366.366 573.054,357.079 518.787,357.079 
	518.787,451.806 572.646,451.806 572.646,442.536 528.233,442.536 528.233,405.308 572.646,405.308 572.646,396.036 
	528.233,396.036 528.233,366.366 "/>
<path fill-rule="evenodd" clip-rule="evenodd" fill="#F68E1E" d="M330.472,32.673V2.646h-16.958v118.741h16.958V50.415
	c29.287,10.179,50.334,37.916,50.394,70.691c-0.063,36.042-25.476,66.064-59.352,73.254v17.224
	c43.315-7.415,76.302-45.033,76.321-90.478C397.819,78.869,369.296,43.411,330.472,32.673 M281.845,191.946
	c-29.529-10.058-50.773-37.903-50.822-70.84c0.053-36.047,25.468-66.063,59.37-73.264V30.63
	c-43.333,7.413-76.334,45.041-76.334,90.476c0,42.407,28.738,77.974,67.787,88.569v31.012h16.949V121.956h-16.949V191.946z"/>
<path fill="#7E8082" d="M557.021,320.842h5.414c2.293,0,4.017,0.432,5.168,1.294c1.154,0.865,1.735,2.15,1.735,3.852
	c0,1.273-0.379,2.332-1.131,3.176c-0.759,0.843-1.84,1.414-3.255,1.715c0.603,0.163,1.092,0.437,1.466,0.821
	c0.376,0.385,0.769,1.055,1.177,2.022l3.044,7.211h-3.017l-2.645-6.574c-0.347-0.847-0.788-1.449-1.312-1.801
	c-0.532-0.347-1.281-0.521-2.248-0.521h-1.612v8.896h-2.785V320.842z M559.807,323.005v6.84h2.16c1.404,0,2.504-0.308,3.302-0.926
	c0.796-0.617,1.196-1.464,1.196-2.551c0-1.158-0.373-2.011-1.109-2.555c-0.741-0.539-1.894-0.809-3.47-0.809H559.807z
	 M530.53,320.842h4.257l5.938,15.581c0.142,0.377,0.25,0.777,0.335,1.205c0.078,0.433,0.13,0.881,0.157,1.353
	c0.069-0.614,0.143-1.146,0.223-1.598c0.077-0.452,0.158-0.784,0.246-1.002l6.161-15.539h4.199v20.091h-2.725v-15.774
	c0-0.494,0.016-1.003,0.056-1.519c0.041-0.514,0.099-1.056,0.185-1.61c-0.128,0.527-0.258,1.023-0.397,1.491
	c-0.142,0.466-0.292,0.893-0.453,1.277l-6.359,16.135h-2.49l-6.347-16.385c-0.094-0.246-0.194-0.579-0.312-0.998
	c-0.113-0.418-0.233-0.908-0.351-1.461c0.057,0.912,0.097,1.63,0.125,2.144c0.027,0.525,0.041,0.847,0.041,0.978v15.723h-2.489
	V320.842z"/>
<g>
	<path fill="#7E8082" d="M46.293,562.769h15.414c2.522,0,4.845,0.235,6.971,0.702c2.125,0.466,3.958,1.261,5.5,2.382
		c1.541,1.12,2.755,2.582,3.643,4.379c0.887,1.798,1.331,4.026,1.331,6.69c0,2.523-0.444,4.718-1.331,6.587
		c-0.888,1.867-2.113,3.421-3.678,4.657c-1.566,1.238-3.411,2.148-5.535,2.733c-2.126,0.583-4.425,0.874-6.9,0.874h-7.286v16.816
		h-8.128V562.769z M61.077,585.26c6.726,0,10.088-2.778,10.088-8.338c0-2.896-0.841-4.893-2.521-5.99
		c-1.682-1.097-4.205-1.646-7.567-1.646h-6.655v15.975H61.077z"/>
	<path fill="#7E8082" d="M126.793,608.59l-9.878-17.937h-7.006v17.937h-8.128v-45.821h15.483c2.383,0,4.6,0.235,6.657,0.702
		c2.054,0.466,3.83,1.226,5.325,2.276c1.494,1.052,2.673,2.441,3.538,4.169c0.864,1.729,1.296,3.876,1.296,6.445
		c0,3.504-0.831,6.329-2.487,8.477c-1.659,2.149-3.866,3.691-6.62,4.624l10.929,19.128H126.793z M109.909,584.209h6.516
		c3.129,0,5.522-0.654,7.181-1.962c1.657-1.308,2.487-3.271,2.487-5.886c0-2.662-0.83-4.506-2.487-5.536
		c-1.659-1.027-4.052-1.54-7.181-1.54h-6.516V584.209z"/>
	<path fill="#7E8082" d="M175.555,609.43c-2.989,0-5.723-0.55-8.197-1.646c-2.476-1.097-4.601-2.685-6.375-4.765
		c-1.776-2.076-3.153-4.589-4.134-7.529c-0.98-2.943-1.471-6.284-1.471-10.021c0-3.688,0.491-6.994,1.471-9.913
		c0.981-2.919,2.358-5.382,4.134-7.391c1.773-2.009,3.899-3.55,6.375-4.626c2.475-1.072,5.208-1.609,8.197-1.609
		c2.989,0,5.721,0.537,8.197,1.609c2.475,1.076,4.612,2.617,6.41,4.626c1.798,2.009,3.188,4.472,4.169,7.391
		c0.98,2.919,1.471,6.226,1.471,9.913c0,3.736-0.491,7.077-1.471,10.021c-0.981,2.94-2.371,5.453-4.169,7.529
		c-1.798,2.08-3.935,3.668-6.41,4.765C181.276,608.88,178.543,609.43,175.555,609.43z M175.555,602.354
		c1.822,0,3.456-0.396,4.905-1.191c1.447-0.793,2.685-1.926,3.713-3.397c1.026-1.471,1.821-3.245,2.381-5.324
		s0.841-4.402,0.841-6.972c0-5.138-1.062-9.165-3.188-12.085c-2.126-2.918-5.01-4.379-8.653-4.379s-6.527,1.461-8.652,4.379
		c-2.126,2.92-3.188,6.947-3.188,12.085c0,2.569,0.281,4.893,0.841,6.972s1.354,3.854,2.382,5.324
		c1.027,1.472,2.266,2.604,3.714,3.397C172.098,601.957,173.733,602.354,175.555,602.354z"/>
	<path fill="#7E8082" d="M218.992,562.769h8.967l8.268,22.561l3.012,8.688h0.281l2.942-8.688l8.127-22.561h8.968v45.821h-7.636
		v-20.948c0-1.076,0.035-2.243,0.105-3.502c0.069-1.262,0.15-2.535,0.245-3.82c0.093-1.283,0.21-2.544,0.35-3.784
		c0.141-1.235,0.257-2.393,0.351-3.467h-0.28l-3.714,10.44l-7.917,20.807h-3.783l-7.917-20.807l-3.644-10.44h-0.279
		c0.093,1.074,0.198,2.231,0.315,3.467c0.116,1.24,0.233,2.501,0.35,3.784c0.116,1.285,0.21,2.559,0.28,3.82
		c0.069,1.259,0.105,2.426,0.105,3.502v20.948h-7.497V562.769z"/>
	<path fill="#7E8082" d="M302.995,609.43c-2.99,0-5.723-0.55-8.198-1.646c-2.475-1.097-4.601-2.685-6.376-4.765
		c-1.774-2.076-3.151-4.589-4.132-7.529c-0.981-2.943-1.472-6.284-1.472-10.021c0-3.688,0.49-6.994,1.472-9.913
		s2.358-5.382,4.132-7.391c1.775-2.009,3.901-3.55,6.376-4.626c2.475-1.072,5.208-1.609,8.198-1.609c2.987,0,5.72,0.537,8.196,1.609
		c2.476,1.076,4.611,2.617,6.409,4.626c1.799,2.009,3.189,4.472,4.169,7.391c0.982,2.919,1.472,6.226,1.472,9.913
		c0,3.736-0.489,7.077-1.472,10.021c-0.979,2.94-2.37,5.453-4.169,7.529c-1.798,2.08-3.934,3.668-6.409,4.765
		C308.715,608.88,305.982,609.43,302.995,609.43z M302.995,602.354c1.821,0,3.454-0.396,4.903-1.191
		c1.447-0.793,2.687-1.926,3.714-3.397c1.027-1.471,1.82-3.245,2.382-5.324c0.561-2.079,0.841-4.402,0.841-6.972
		c0-5.138-1.063-9.165-3.187-12.085c-2.127-2.918-5.01-4.379-8.653-4.379c-3.645,0-6.528,1.461-8.652,4.379
		c-2.126,2.92-3.189,6.947-3.189,12.085c0,2.569,0.279,4.893,0.84,6.972c0.562,2.079,1.354,3.854,2.382,5.324
		c1.027,1.472,2.265,2.604,3.714,3.397C299.537,601.957,301.173,602.354,302.995,602.354z"/>
	<path fill="#7E8082" d="M354.279,569.636h-13.241v-6.867h34.609v6.867h-13.241v38.954h-8.127V569.636z"/>
	<path fill="#7E8082" d="M413.271,609.43c-2.99,0-5.723-0.55-8.198-1.646c-2.475-1.097-4.601-2.685-6.375-4.765
		c-1.775-2.076-3.151-4.589-4.134-7.529c-0.981-2.943-1.472-6.284-1.472-10.021c0-3.688,0.49-6.994,1.472-9.913
		c0.982-2.919,2.358-5.382,4.134-7.391c1.774-2.009,3.9-3.55,6.375-4.626c2.476-1.072,5.208-1.609,8.198-1.609
		c2.986,0,5.72,0.537,8.197,1.609c2.475,1.076,4.61,2.617,6.408,4.626c1.8,2.009,3.189,4.472,4.169,7.391
		c0.982,2.919,1.472,6.226,1.472,9.913c0,3.736-0.489,7.077-1.472,10.021c-0.979,2.94-2.369,5.453-4.169,7.529
		c-1.798,2.08-3.934,3.668-6.408,4.765C418.991,608.88,416.258,609.43,413.271,609.43z M413.271,602.354
		c1.82,0,3.455-0.396,4.902-1.191c1.448-0.793,2.688-1.926,3.715-3.397c1.027-1.471,1.82-3.245,2.382-5.324s0.84-4.402,0.84-6.972
		c0-5.138-1.062-9.165-3.187-12.085c-2.126-2.918-5.009-4.379-8.652-4.379c-3.645,0-6.528,1.461-8.652,4.379
		c-2.126,2.92-3.188,6.947-3.188,12.085c0,2.569,0.279,4.893,0.841,6.972c0.561,2.079,1.354,3.854,2.382,5.324
		c1.027,1.472,2.265,2.604,3.714,3.397C409.813,601.957,411.45,602.354,413.271,602.354z"/>
	<path fill="#7E8082" d="M481.718,608.59l-9.878-17.937h-7.006v17.937h-8.128v-45.821h15.484c2.382,0,4.599,0.235,6.656,0.702
		c2.055,0.466,3.829,1.226,5.324,2.276c1.493,1.052,2.674,2.441,3.537,4.169c0.864,1.729,1.296,3.876,1.296,6.445
		c0,3.504-0.828,6.329-2.486,8.477c-1.658,2.149-3.865,3.691-6.62,4.624l10.93,19.128H481.718z M464.834,584.209h6.517
		c3.126,0,5.522-0.654,7.181-1.962s2.486-3.271,2.486-5.886c0-2.662-0.828-4.506-2.486-5.536c-1.658-1.027-4.055-1.54-7.181-1.54
		h-6.517V584.209z"/>
	<path fill="#7E8082" d="M512.685,562.769h8.127v45.821h-8.127V562.769z"/>
	<path fill="#7E8082" d="M567.753,596.188H552.34l-3.574,12.402h-8.268l14.923-45.821h9.53l14.922,45.821h-8.547L567.753,596.188z
		 M565.93,589.812l-1.609-5.604c-0.749-2.428-1.462-4.929-2.139-7.497c-0.677-2.569-1.343-5.114-1.994-7.638h-0.282
		c-0.654,2.57-1.307,5.127-1.962,7.672c-0.654,2.546-1.354,5.035-2.102,7.463l-1.611,5.604H565.93z"/>
</g>
</svg>
